<svg xmlns="http://www.w3.org/2000/svg" viewBox="0 0 236.92 312.98"><defs><style>.cls-1{fill:#bfe4de;}.cls-2{fill:#b9dfc8;}.cls-3{fill:#bce2d6;}.cls-4{fill:#bbe1d0;}.cls-5{fill:#b8dec3;}.cls-6{fill:#b7ddbd;}.cls-7{fill:#b7dcb6;}.cls-8{fill:#b7dbaf;}.cls-9{fill:#bfdaa1;}.cls-10{fill:#cfd78f;}.cls-11{fill:#b9dbaa;}.cls-12{fill:#e3d27b;}.cls-13{fill:#c8d898;}.cls-14{fill:#d5d689;}</style></defs><g id="Layer_2" data-name="Layer 2"><g id="Layer_1-2" data-name="Layer 1"><path class="cls-1" d="M79.07,157.91c0-28-.18-56.06.09-84.09.08-9.06,2.58-17.78,6.2-26.14a79.29,79.29,0,0,1,11.46-18.8,78.18,78.18,0,0,1,15.41-14.32,77.35,77.35,0,0,1,32-13.39A76.06,76.06,0,0,1,164.09.29a85.59,85.59,0,0,1,17.53,3.33,78.53,78.53,0,0,1,21.82,10.75A75.64,75.64,0,0,1,215,24.29a79.81,79.81,0,0,1,17.1,27.44A80.31,80.31,0,0,1,230,111.52a78.1,78.1,0,0,1-19.26,26.38,77.08,77.08,0,0,1-25.16,15.2A80.43,80.43,0,0,1,157,158c-26-.13-51.95-.05-77.93-.06ZM174.29,20.42c-2.48,0-4.6-.13-6.69,0-4.06.32-8.11.81-12.16,1.24-3.44.36-6.9.72-10.34,1.14-3.88.47-7.73,1.13-11.62,1.48a22,22,0,0,0-9.07,2.88,140.19,140.19,0,0,0-12,8.24A35.16,35.16,0,0,1,104,40.09,42.52,42.52,0,0,0,97.55,43c-6.66,3.75-10.68,9.8-13.81,16.5-2,4.31-2.49,9.05-2.94,13.69-.7,7.12.32,14.24,1,21.33a46.7,46.7,0,0,1,.43,9.56c-.45,4,0,8.07-.7,12.13s-.12,8.16-.43,12.26a52.06,52.06,0,0,0,1,14.35c1,5,3,9.25,8.36,10.94,2.32.73,4.7,1.13,7.06,1.69,3,.71,6.06.39,9.07.59a39.08,39.08,0,0,0,5.74-.44c3.69-.32,7.43.28,11.1-.43,1.72-.33,3.42.2,5.07-.1a47.83,47.83,0,0,1,9.17-.37c2.6,0,5.25,0,7.86.09,8.19.27,16.38-.05,24.56-.56a80.73,80.73,0,0,0,11.11-1.56,55.86,55.86,0,0,0,19.49-8.48c1.43-.95,2.76-2.06,4.24-2.92,3.72-2.19,6.63-5.33,9.66-8.29a58.16,58.16,0,0,0,6.35-7.84,79.92,79.92,0,0,0,6.14-10,40.78,40.78,0,0,0,4.24-12.84c.43-3,1.23-5.94,1.61-8.94.49-3.82,1.1-7.62,1.57-11.44a58.2,58.2,0,0,0-.39-17.14,35.07,35.07,0,0,0-6.47-14.91c-4-5.37-8.43-10.1-14.56-13-1.89-.89-4-1.25-5.9-2.07a55.23,55.23,0,0,1-9.9-5.67c-3.21-2.28-6.64-4.2-10-6.15A20.27,20.27,0,0,0,174.29,20.42Z"/><path class="cls-2" d="M9.43,288.15A69.59,69.59,0,0,1,5.34,277,141.47,141.47,0,0,1,.87,255a74.65,74.65,0,0,1-.7-9.9C.15,241-.09,237,0,233c.2-6.36.83-12.64,1.66-18.94a120.09,120.09,0,0,1,5-21.39C9.55,184.05,13.45,176,19.28,169c3.77-4.51,8.17-8.32,14-10a26.11,26.11,0,0,1,7.18-1.07q19.3,0,38.62,0h0c0,27,.08,53.93-.07,80.89a142,142,0,0,1-1.83,21.75A126.5,126.5,0,0,1,70.5,286a52.45,52.45,0,0,1-4.06,8.53c-.69-1,.54-1.76.29-2.69v-.67c1.41-.52,1.37-1.85,1.66-3v-.33c.55,0,.75-.43.9-.85a90.33,90.33,0,0,0,3-8.7c1-4,2.09-7.92,2.68-11.94a103,103,0,0,0,1.58-15.71c0-2.93.33-6,.39-8.91.3-14.28-.17-28.58.73-42.86.25-4,0-8.1,0-12.15A84.1,84.1,0,0,0,76.39,169c-.83-4.27-3.14-7.23-7.49-8.36-3.43-.9-6.79.24-10.14.54-1.52.14-3.18.45-4.71.54a89.88,89.88,0,0,1-13.63,0c-6.13-.61-11.85-.23-16.64,4.06-1.53,1.37-3.4,2.55-4,4.74a.72.72,0,0,0-.33.67c-.71,0-1.08.54-1.47,1-1.54,1.75-2.45,3.9-3.7,5.83a68.29,68.29,0,0,0-8,19.19,128.21,128.21,0,0,0-3.88,22.09c-.17,1.93,0,3.88-.34,5.78-.65,3.78-.44,7.63-.42,11.4,0,4.7.43,9.45.77,14.18.55,7.8,1.33,15.55,3.38,23.13,1.21,4.51,1.61,9.26,3.89,13.46A.62.62,0,0,1,9.43,288.15Z"/><path class="cls-2" d="M9.43,288.15a.62.62,0,0,0,.24-.87c-2.28-4.2-2.68-8.95-3.89-13.46C3.73,266.24,3,258.49,2.4,250.69c-.34-4.73-.75-9.48-.77-14.18,0-3.77-.23-7.62.42-11.4.32-1.9.17-3.85.34-5.78a128.21,128.21,0,0,1,3.88-22.09,68.29,68.29,0,0,1,8-19.19c1.25-1.93,2.16-4.08,3.7-5.83.39-.45.76-1,1.47-1a23.22,23.22,0,0,1-2.81,4.65,51.59,51.59,0,0,0-5.69,10.05,87.62,87.62,0,0,0-4.77,15.79,123,123,0,0,0-2.09,15.86c-.15,2.26-.09,4.49-.12,6.74-.1,5.67-.76,11.3-.24,17,.57,6.35.27,12.75,1,19.1.44,3.6.53,7.23,1.28,10.81a35.49,35.49,0,0,1,1.06,3.63A46.31,46.31,0,0,0,9.16,284c.21.69.32,1.57,1.29,1.76v1.33c.41,2.05,1.57,3.76,2.46,5.59a49.55,49.55,0,0,0,9.71,13.72,8.16,8.16,0,0,0,6.63,2.48c3.56-.41,7,.76,10.46.48a22.13,22.13,0,0,0,2.8-.13,24.36,24.36,0,0,1,7.67-.51c2.61.31,6.1-1.82,7.23-4.31a7.92,7.92,0,0,0,1.71-1.27,50.29,50.29,0,0,0,6.23-9.49c.3-.68.43-1.64,1.38-1.89.25.93-1,1.71-.29,2.69a2.2,2.2,0,0,1-.68,1.31c-.71,0-.7.51-.67,1h0a4,4,0,0,0-2,3.33h0c-.84,0-1.25.66-1.64,1.25-2,3-4.83,5.3-7.44,7.77-2.34,2.21-5.47,2.16-8.31,2.91a15.38,15.38,0,0,1-5.67.86,62.68,62.68,0,0,1-7-.81c-3.35-.82-6.76-1.52-9.49-3.81a52.74,52.74,0,0,1-4.26-4.2c-.37-.39-.66-.73-1.22-.66a22.46,22.46,0,0,1-3.35-4.95c0-.51.05-1-.67-1a16.21,16.21,0,0,1-2.34-4.33c.6-.85.07-1.14-.67-1.33-.1-.22-.21-.45-.32-.67.74-.91.13-1.16-.64-1.34A3.36,3.36,0,0,1,9.43,288.15Z"/><path class="cls-3" d="M174.29,20.42A20.27,20.27,0,0,1,187.22,23c3.39,1.95,6.82,3.87,10,6.15a55.23,55.23,0,0,0,9.9,5.67c1.9.82,4,1.18,5.9,2.07,6.13,2.89,10.6,7.62,14.56,13a35.07,35.07,0,0,1,6.47,14.91A58.2,58.2,0,0,1,234.47,82c-.47,3.82-1.08,7.62-1.57,11.44-.38,3-1.18,5.94-1.61,8.94a40.78,40.78,0,0,1-4.24,12.84,79.92,79.92,0,0,1-6.14,10,58.16,58.16,0,0,1-6.35,7.84c-3,3-5.94,6.1-9.66,8.29-1.48.86-2.81,2-4.24,2.92a55.86,55.86,0,0,1-19.49,8.48,80.73,80.73,0,0,1-11.11,1.56c-8.18.51-16.37.83-24.56.56-2.61-.09-5.26-.06-7.86-.09a47.83,47.83,0,0,0-9.17.37c-1.65.3-3.35-.23-5.07.1-3.67.71-7.41.11-11.1.43a39.08,39.08,0,0,1-5.74.44c-3-.2-6.07.12-9.07-.59-2.36-.56-4.74-1-7.06-1.69-5.41-1.69-7.34-6-8.36-10.94a52.06,52.06,0,0,1-1-14.35c.31-4.1-.26-8.27.43-12.26s.25-8.09.7-12.13a46.7,46.7,0,0,0-.43-9.56c-.68-7.09-1.7-14.21-1-21.33.45-4.64.93-9.38,2.94-13.69,3.13-6.7,7.15-12.75,13.81-16.5A42.52,42.52,0,0,1,104,40.09a35.16,35.16,0,0,0,8.37-4.66,140.19,140.19,0,0,1,12-8.24,22,22,0,0,1,9.07-2.88c3.89-.35,7.74-1,11.62-1.48,3.44-.42,6.9-.78,10.34-1.14,4.05-.43,8.1-.92,12.16-1.24C169.69,20.29,171.81,20.42,174.29,20.42Zm58.6,52.1a28.43,28.43,0,0,0-.5-7.6,35.77,35.77,0,0,0-7.28-15.37,32.4,32.4,0,0,0-11-9.11c-2.13-1.09-4.56-1.27-6.75-2.2-6.11-2.61-11.48-6.55-17.29-9.71-4.33-2.35-8.68-4.1-13.59-3.79-3.41.21-6.81,0-10.2.26-4.23.38-8.43.91-12.68,1.15-6.42.35-12.73,1.85-19.18,2.28a21.3,21.3,0,0,0-8.64,2.05,74.91,74.91,0,0,0-8.63,5.25,85.76,85.76,0,0,1-17.66,9.71A20.12,20.12,0,0,0,89.27,54a18,18,0,0,1-1.18,1.8c-3.53,4.61-4.61,10.11-5.31,15.63-.94,7.4.87,14.6,2.29,21.8a38.74,38.74,0,0,1,1,8c0,3-.62,6-.77,9.07-.07,1.29.24,2.77-.38,3.91-1,1.79-.77,3.64-.83,5.51,0,1.21-.07,2.41-.21,3.63-.23,2.08-.67,4.15-.72,6.23a34.21,34.21,0,0,0,1.66,11.35,16.81,16.81,0,0,0,6.35,8.68c4.35,3.11,9.35,4.18,14.53,4.33a63.46,63.46,0,0,0,9.73-.65c2.77-.34,5.65.17,8.31-1.09a4.82,4.82,0,0,1,1.8-.19,20.58,20.58,0,0,0,3.15-.09,66.41,66.41,0,0,1,10-.89c3.8-.15,7.6.34,11.4,0,2.37-.22,4.73.45,7.12.33,2.21-.1,4.39-.49,6.62-.38a105.61,105.61,0,0,0,13.43-.38c1.72-.13,3.44.22,5.07,0a45.59,45.59,0,0,0,15.88-5.92A67.73,67.73,0,0,0,219,126c3-4.16,5.93-8.38,7.66-13.3a48.43,48.43,0,0,0,2.26-11.65c.59-6.2,2-12.26,2.88-18.42C232.26,79.22,233.3,75.86,232.89,72.52Z"/><path class="cls-4" d="M10.45,285.8c-1-.19-1.08-1.07-1.29-1.76a46.31,46.31,0,0,1-2.07-9.17A35.49,35.49,0,0,0,6,271.24c-.75-3.58-.84-7.21-1.28-10.81-.76-6.35-.46-12.75-1-19.1-.52-5.71.14-11.34.24-17,0-2.25,0-4.48.12-6.74a123,123,0,0,1,2.09-15.86,87.62,87.62,0,0,1,4.77-15.79,51.59,51.59,0,0,1,5.69-10.05,23.22,23.22,0,0,0,2.81-4.65.72.72,0,0,1,.33-.67,1.49,1.49,0,0,0,1.13-.62,22.64,22.64,0,0,1,4.53-3.87,7.88,7.88,0,0,1,6.13-1.3c3.5.79,7,1.64,10.62,1.48,2.53-.1,5.07,0,7.6,0a50.22,50.22,0,0,0,5.07-.68c2-.17,3.51-1.44,5.39-1.76,1.73-.29,3.46-.64,5.21-.86a5.74,5.74,0,0,1,2.61.26c3.65,1.22,5.07,4.35,6.26,7.49,1.78,4.7,2.13,9.66,2.08,14.66,0,4.58,0,9.15,0,13.73a14.73,14.73,0,0,1-.06,1.49c-.47,4.11-1.08,8.24-1.16,12.32-.28,13.64,0,27.28-.42,40.92-.07,2.43-.27,4.86-.43,7.27A119.76,119.76,0,0,1,72,275.75a55.5,55.5,0,0,1-2.53,8.72c-.2.57-.25,1.24-1,1.33.64-2.78,1.65-5.46,2.23-8.28a96.61,96.61,0,0,0,2.05-16.21c.2-6.39.2-12.79.34-19.19.18-7.93,0-15.87.08-23.81a50.11,50.11,0,0,1,.72-8.39,116.16,116.16,0,0,0,1.55-17.44,65.77,65.77,0,0,0-.29-9.62c-.5-4.35-1.13-8.66-3.32-12.56-1.16-2-2.41-4-4.86-4.72-3-.82-5.73.34-8.22,1.59-3.45,1.73-6.87,3.17-10.8,3.07-3-.08-6,0-9-.29a32.23,32.23,0,0,1-8.21-2.27c-1.7-.63-5-.48-6.51.6a25.57,25.57,0,0,0-6,6.57c-4.49,6.74-8.28,13.76-10,21.88A145.8,145.8,0,0,0,5.5,219c-.27,5.53-.12,11.07-.32,16.61-.15,4,.48,8,.53,12.07.09,6.47.5,12.91,1.06,19.35A80.34,80.34,0,0,0,10.45,285.8Z"/><path class="cls-3" d="M68.4,285.8c.79-.09.84-.76,1-1.33A55.5,55.5,0,0,0,72,275.75a119.76,119.76,0,0,0,2.35-14.67c.16-2.41.36-4.84.43-7.27.37-13.64.14-27.28.42-40.92.08-4.08.69-8.21,1.16-12.32a14.73,14.73,0,0,0,.06-1.49c0-4.58,0-9.15,0-13.73,0-5-.3-10-2.08-14.66-1.19-3.14-2.61-6.27-6.26-7.49a5.74,5.74,0,0,0-2.61-.26c-1.75.22-3.48.57-5.21.86-1.88.32-3.41,1.59-5.39,1.76a50.22,50.22,0,0,1-5.07.68c-2.53,0-5.07-.09-7.6,0-3.64.16-7.12-.69-10.62-1.48a7.88,7.88,0,0,0-6.13,1.3,22.64,22.64,0,0,0-4.53,3.87,1.49,1.49,0,0,1-1.13.62c.61-2.19,2.48-3.37,4-4.74,4.79-4.29,10.51-4.67,16.64-4.06a89.88,89.88,0,0,0,13.63,0c1.53-.09,3.19-.4,4.71-.54,3.35-.3,6.71-1.44,10.14-.54,4.35,1.13,6.66,4.09,7.49,8.36a84.1,84.1,0,0,1,1.35,17.64c-.07,4,.2,8.11,0,12.15-.9,14.28-.43,28.58-.73,42.86-.06,2.94-.41,6-.39,8.91A103,103,0,0,1,75,266.31c-.59,4-1.73,8-2.68,11.94a90.33,90.33,0,0,1-3,8.7c-.15.42-.35.84-.9.85v-2Z"/><path class="cls-2" d="M68.4,286.8c-1.41.66-1.55,2.22-2.09,3.36a57.41,57.41,0,0,1-8.52,13.07,1.63,1.63,0,0,0-.38,1.22,1.65,1.65,0,0,0-1,.5,6.72,6.72,0,0,1-6.47,1.32,14.75,14.75,0,0,0-6.55-.26,17.76,17.76,0,0,1-4.57.24,36.9,36.9,0,0,0-6.74-.2c-1.44.12-2.8.49-4.2.71-3.28.5-5.38-1.43-7.29-3.71a63.15,63.15,0,0,1-9.3-15.22c-.16-.37-.37-.69-.83-.7V285.8A80.34,80.34,0,0,1,6.77,267c-.56-6.44-1-12.88-1.06-19.35,0-4-.68-8.06-.53-12.07.2-5.54.05-11.08.32-16.61a145.8,145.8,0,0,1,2.73-22.28c1.68-8.12,5.47-15.14,10-21.88a25.57,25.57,0,0,1,6-6.57c1.47-1.08,4.81-1.23,6.51-.6A32.23,32.23,0,0,0,38.93,170c3,.27,6,.21,9,.29,3.93.1,7.35-1.34,10.8-3.07,2.49-1.25,5.24-2.41,8.22-1.59,2.45.68,3.7,2.68,4.86,4.72,2.19,3.9,2.82,8.21,3.32,12.56a65.77,65.77,0,0,1,.29,9.62,116.16,116.16,0,0,1-1.55,17.44,50.11,50.11,0,0,0-.72,8.39c-.1,7.94.1,15.88-.08,23.81-.14,6.4-.14,12.8-.34,19.19a96.61,96.61,0,0,1-2.05,16.21c-.58,2.82-1.59,5.5-2.23,8.28ZM7.78,258.12c.27,6.34.34,12.7,1.74,18.92.54,2.43.51,5,1.39,7.3,2.3,6.07,5,11.92,9.3,16.9,1.15,1.34,2.39,3,4.43,2.83a48,48,0,0,0,6.2-.52c1.39-.3,2.66-1.21,4.14-1a51.53,51.53,0,0,0,9.21.16c.64,0,1.22-.35,1.94-.14,1.53.46,3.1.8,4.66,1.12a7.14,7.14,0,0,0,7.68-2.67,54.81,54.81,0,0,0,7-10.84,41,41,0,0,0,3.66-10.63c.76-4,1.11-8,1.58-11.95a59.85,59.85,0,0,0,.27-6.28c0-2.69-.32-5.46-.09-8.1.35-4,.21-8.06.44-12.08.5-8.57-.29-17.19.43-25.77.34-3.95.47-7.94,1.11-11.84A122,122,0,0,0,74,190.24a52.24,52.24,0,0,0-.64-8.74,22.56,22.56,0,0,0-4.07-11.07,5.43,5.43,0,0,0-5.89-1.72c-3.58,1.45-7.14,3-10.74,4.33a11.6,11.6,0,0,1-3.61,1.18c-4.1.16-8.19-.11-12.28-.35a3.25,3.25,0,0,1-1.71-.56c-2.26-1.79-5-2.28-7.68-3a4.45,4.45,0,0,0-4.14.55A28.64,28.64,0,0,0,17.75,177c-4.3,6.51-7.54,13.48-8.65,21.32-.76,5.35-1.66,10.68-1.66,16.11,0,2-.32,3.95-.25,5.88.26,6.92-.7,13.8-.17,20.74C7.45,246.73,7.63,252.43,7.78,258.12Z"/><path class="cls-4" d="M232.89,72.52c.41,3.34-.63,6.7-1.11,10.13-.86,6.16-2.29,12.22-2.88,18.42a48.43,48.43,0,0,1-2.26,11.65c-1.73,4.92-4.65,9.14-7.66,13.3a67.73,67.73,0,0,1-20.77,18.52,45.59,45.59,0,0,1-15.88,5.92c-1.63.27-3.35-.08-5.07,0a105.61,105.61,0,0,1-13.43.38c-2.23-.11-4.41.28-6.62.38-2.39.12-4.75-.55-7.12-.33-3.8.34-7.6-.15-11.4,0a66.41,66.41,0,0,0-10,.89,20.58,20.58,0,0,1-3.15.09,4.82,4.82,0,0,0-1.8.19c-2.66,1.26-5.54.75-8.31,1.09a63.46,63.46,0,0,1-9.73.65c-5.18-.15-10.18-1.22-14.53-4.33a16.81,16.81,0,0,1-6.35-8.68,34.21,34.21,0,0,1-1.66-11.35c0-2.08.49-4.15.72-6.23.14-1.22.17-2.42.21-3.63.06-1.87-.15-3.72.83-5.51.62-1.14.31-2.62.38-3.91.15-3,.75-6,.77-9.07a38.74,38.74,0,0,0-1-8c-1.42-7.2-3.23-14.4-2.29-21.8.7-5.52,1.78-11,5.31-15.63A18,18,0,0,0,89.27,54a20.12,20.12,0,0,1,10.25-8.52,85.76,85.76,0,0,0,17.66-9.71,74.91,74.91,0,0,1,8.63-5.25,21.3,21.3,0,0,1,8.64-2.05c6.45-.43,12.76-1.93,19.18-2.28,4.25-.24,8.45-.77,12.68-1.15,3.39-.3,6.79-.05,10.2-.26,4.91-.31,9.26,1.44,13.59,3.79,5.81,3.16,11.18,7.1,17.29,9.71,2.19.93,4.62,1.11,6.75,2.2a32.4,32.4,0,0,1,11,9.11,35.77,35.77,0,0,1,7.28,15.37A28.43,28.43,0,0,1,232.89,72.52Zm-2.25-2.7A29.72,29.72,0,0,0,225,53.18a27.42,27.42,0,0,0-10.33-8.56c-2-1-4.27-1.14-6.32-1.86A62.4,62.4,0,0,1,198.49,38a91.73,91.73,0,0,0-11.94-6.17,20.88,20.88,0,0,0-10.38-1.22c-2.94.38-5.93-.27-8.9.06-2.68.3-5.36,1-8,.9-4.09-.15-8,.88-12,1.16-4.88.35-9.69,1.42-14.61,1.61a18.67,18.67,0,0,0-4.07.58c-4.18,1.1-7.74,3.53-11.34,5.77a77.09,77.09,0,0,1-15.76,8c-7.65,2.6-12.19,8.21-14.65,15.76a29.3,29.3,0,0,0-.75,14.69,49.93,49.93,0,0,0,3.21,10.22c1.19,2.83,1.44,5.89,2.32,8.8a5.94,5.94,0,0,1,0,3.13c-1.37,4.86-1,10.05-2.87,14.84a20.72,20.72,0,0,0-.87,5.19c-.41,3.7-1.69,7.29-.86,11.13,1.15,5.28,3.15,10,7.5,13.43a22.4,22.4,0,0,0,13.07,4.57c2.92.17,5.9-.66,8.85-1,4.45-.47,8.52-2.53,13-2.86,3.89-.28,7.6-1.89,11.58-1.75l7.62.27c6,.21,12,0,18,.1a12.33,12.33,0,0,1,2.28-.24c5.87,1,11.78,1.75,17.73,1.15,3.54-.35,7.05-.94,10.27-2.84a61.06,61.06,0,0,0,8.72-6c2.42-2.06,5.19-3.76,7.13-6.37a36.46,36.46,0,0,1,3.05-3.71,36.76,36.76,0,0,0,7.84-12.93c1.75-4.51,1.07-9.33,2-14,.69-3.57.29-7.32,1.44-10.79,1.2-3.62,1.42-7.43,2.71-11.06C230.72,75.86,230.68,72.77,230.64,69.82Z"/><path class="cls-5" d="M7.78,258.12c-.15-5.69-.33-11.39-.76-17.06-.53-6.94.43-13.82.17-20.74-.07-1.93.25-3.92.25-5.88,0-5.43.9-10.76,1.66-16.11,1.11-7.84,4.35-14.81,8.65-21.32a28.64,28.64,0,0,1,5.53-6.11,4.45,4.45,0,0,1,4.14-.55c2.66.68,5.42,1.17,7.68,3a3.25,3.25,0,0,0,1.71.56c4.09.24,8.18.51,12.28.35A11.6,11.6,0,0,0,52.7,173c3.6-1.37,7.16-2.88,10.74-4.33a5.43,5.43,0,0,1,5.89,1.72A22.56,22.56,0,0,1,73.4,181.5a52.24,52.24,0,0,1,.64,8.74,122,122,0,0,1-1.2,13.33c-.64,3.9-.77,7.89-1.11,11.84-.72,8.58.07,17.2-.43,25.77-.23,4-.09,8-.44,12.08-.23,2.64.12,5.41.09,8.1a59.85,59.85,0,0,1-.27,6.28c-.47,4-.82,8-1.58,11.95a41,41,0,0,1-3.66,10.63,54.81,54.81,0,0,1-7,10.84,7.14,7.14,0,0,1-7.68,2.67c-1.56-.32-3.13-.66-4.66-1.12-.72-.21-1.3.13-1.94.14a51.53,51.53,0,0,1-9.21-.16c-1.48-.25-2.75.66-4.14,1a48,48,0,0,1-6.2.52c-2,.18-3.28-1.49-4.43-2.83-4.26-5-7-10.83-9.3-16.9-.88-2.34-.85-4.87-1.39-7.3C8.12,270.82,8.05,264.46,7.78,258.12Zm2.05,2.76a109.28,109.28,0,0,0,1.24,18A35.41,35.41,0,0,0,16.41,294c.91,1.38,1.78,2.79,2.63,4.21,1,1.66,2.47,3.18,4.28,3.36a8.58,8.58,0,0,0,5.23-1.16c3-1.78,6.4-1.71,9.74-1.5a20.05,20.05,0,0,0,4,0c3.12-.41,6.2-.58,9,1.39a5,5,0,0,0,6.47-.37c3.24-2.76,5-6.58,6.9-10.22,3.07-5.9,3.85-12.44,4-19,.25-9.91,0-19.83.38-29.75.3-8.63-.35-17.27.6-25.9.44-4,1.18-8.06,1.62-12.1.58-5.35,1.52-10.65,1.19-16.09A33.56,33.56,0,0,0,69,174.09c-.71-1.46-3.13-2.88-4.52-2.46a25.85,25.85,0,0,0-7.25,3.22c-3.61,2.45-7.49,4.25-12,4.06-2.32-.1-4.64-.21-6.95-.28a14.15,14.15,0,0,1-8.46-3.28c-3.52-2.78-7.65-2.51-10.2,1-4.17,5.72-7.56,11.81-8.65,18.93a100.39,100.39,0,0,0-1.5,13.63c0,3.54.05,7.07-.24,10.62-.37,4.68-.07,9.4-.35,14.11s.34,9.59.55,14.39S10,257.82,9.83,260.88Z"/><path class="cls-2" d="M230.64,69.82c0,3,.08,6-.88,8.71-1.29,3.63-1.51,7.44-2.71,11.06-1.15,3.47-.75,7.22-1.44,10.79-.89,4.62-.21,9.44-2,14a36.76,36.76,0,0,1-7.84,12.93,36.46,36.46,0,0,0-3.05,3.71c-1.94,2.61-4.71,4.31-7.13,6.37a61.06,61.06,0,0,1-8.72,6c-3.22,1.9-6.73,2.49-10.27,2.84-5.95.6-11.86-.15-17.73-1.15a12.33,12.33,0,0,0-2.28.24c-6-.05-12,.11-18-.1l-7.62-.27c-4-.14-7.69,1.47-11.58,1.75-4.5.33-8.57,2.39-13,2.86-3,.3-5.93,1.13-8.85,1a22.4,22.4,0,0,1-13.07-4.57c-4.35-3.48-6.35-8.15-7.5-13.43-.83-3.84.45-7.43.86-11.13a20.72,20.72,0,0,1,.87-5.19c1.87-4.79,1.5-10,2.87-14.84a5.94,5.94,0,0,0,0-3.13c-.88-2.91-1.13-6-2.32-8.8a49.93,49.93,0,0,1-3.21-10.22,29.3,29.3,0,0,1,.75-14.69c2.46-7.55,7-13.16,14.65-15.76a77.09,77.09,0,0,0,15.76-8c3.6-2.24,7.16-4.67,11.34-5.77a18.67,18.67,0,0,1,4.07-.58c4.92-.19,9.73-1.26,14.61-1.61,4-.28,7.93-1.31,12-1.16,2.66.09,5.34-.6,8-.9,3-.33,6,.32,8.9-.06a20.88,20.88,0,0,1,10.38,1.22A91.73,91.73,0,0,1,198.49,38a62.4,62.4,0,0,0,9.86,4.73c2.05.72,4.34.86,6.32,1.86A27.42,27.42,0,0,1,225,53.18,29.72,29.72,0,0,1,230.64,69.82ZM229,67.57a22.64,22.64,0,0,0-5.14-14.11c-2.83-3.54-6.09-6.52-10.78-7.49a36.06,36.06,0,0,1-9.38-3.22c-6.22-3.21-12.13-7.07-18.9-9.16a21,21,0,0,0-8.82-.8,32.22,32.22,0,0,1-5.8.17,26.74,26.74,0,0,0-5.37.34,41.35,41.35,0,0,1-7.7.9,50.93,50.93,0,0,0-8.83.75c-5.35.71-10.68,1.58-16.09,1.76a15.42,15.42,0,0,0-4.39.74c-5,1.63-9.15,4.64-13.59,7.21-3.68,2.14-7.29,4.29-11.48,5.48-3.52,1-7,2.34-9.6,5.43a27.23,27.23,0,0,0-5.26,9.61,24.4,24.4,0,0,0,.53,16.23c1.82,4.92,4,9.67,5.29,14.81a11.67,11.67,0,0,1,.11,5.66c-1.14,4.75-1.43,9.68-2.76,14.41-.59,2.11-.7,4.34-1.19,6.49-.54,2.41-1.42,4.86-1.09,7.33.71,5.38,2.55,10.22,6.85,13.95a18.49,18.49,0,0,0,12.54,4.39c4.76,0,9.39-1.74,14.16-2.28,1.06-.13,2-.85,3.16-.94a50.63,50.63,0,0,0,5.07-.69c4.5-.83,9-1.87,13.6-1.65,3.27.16,6.57-.14,9.82.13,4.66.4,9.3.14,13.95.16.58,0,1.16-.33,1.79-.2a67.55,67.55,0,0,0,18,1.22,21.88,21.88,0,0,0,8.39-1.71A55.8,55.8,0,0,0,210,132.63a59.79,59.79,0,0,0,9.4-11.72,10.84,10.84,0,0,0,1.47-3.34,60.16,60.16,0,0,0,1.46-11c.17-4.09.2-8.18.27-12.28a3.37,3.37,0,0,1,.21-1.13c1.33-3.82,2.35-7.72,3.52-11.59A55.3,55.3,0,0,0,229,67.57Z"/><path class="cls-6" d="M9.83,260.88c.16-3.06-.23-8-.44-12.86s-.83-9.6-.55-14.39,0-9.43.35-14.11c.29-3.55.19-7.08.24-10.62a100.39,100.39,0,0,1,1.5-13.63c1.09-7.12,4.48-13.21,8.65-18.93,2.55-3.5,6.68-3.77,10.2-1a14.15,14.15,0,0,0,8.46,3.28c2.31.07,4.63.18,6.95.28,4.55.19,8.43-1.61,12-4.06a25.85,25.85,0,0,1,7.25-3.22c1.39-.42,3.81,1,4.52,2.46a33.56,33.56,0,0,1,3.46,12.85c.33,5.44-.61,10.74-1.19,16.09-.44,4-1.18,8.05-1.62,12.1-1,8.63-.3,17.27-.6,25.9-.35,9.92-.13,19.84-.38,29.75-.17,6.52-1,13.06-4,19-1.9,3.64-3.66,7.46-6.9,10.22a5,5,0,0,1-6.47.37c-2.84-2-5.92-1.8-9-1.39a20.05,20.05,0,0,1-4,0c-3.34-.21-6.74-.28-9.74,1.5a8.58,8.58,0,0,1-5.23,1.16c-1.81-.18-3.3-1.7-4.28-3.36-.85-1.42-1.72-2.83-2.63-4.21a35.41,35.41,0,0,1-5.34-15.15A109.28,109.28,0,0,1,9.83,260.88Zm2,1.82c-.18,6.72.84,12.86,1,19a10.5,10.5,0,0,0,1.27,4.77,24.59,24.59,0,0,1,1.66,3.79c1.15,3.21,3.35,5.65,5.68,8a1,1,0,0,0,1.19.27,16.1,16.1,0,0,0,3.93-1.75,10.1,10.1,0,0,1,6.92-1.56,56.8,56.8,0,0,0,7.72.21c2-.05,4-.41,6.07-.56,3.06-.22,5.42,1.82,8.16,2.66a2.51,2.51,0,0,0,3-.65,30.32,30.32,0,0,0,7.2-13.83c1.1-4.21.84-8.67,1-13,.31-8.75,0-17.51.37-26.26s0-17.73.25-26.6c.16-5.14,1.38-10,2-15.06.52-4.26,1.43-8.48,1.47-12.79,0-1.62-.53-3.16-.66-4.75-.27-3.34-1.07-6.36-3.93-8.57-1.05-.81-1.87-1.05-3-.39-2.27,1.36-4.69,2.5-6.55,4.48a3.21,3.21,0,0,1-1.19.86c-3,1-5.92,2.07-9.18,1.91-3.81-.18-7.66.26-11.43-.42-2.15-.38-4.5-.83-6.21-2s-3.53-2-5.2-3.14a1.43,1.43,0,0,0-2.06.13,27.83,27.83,0,0,0-8.8,16.87c-.93,6.26-1.11,12.63-1.41,19-.26,5.48,0,11-.31,16.45-.33,6.34.27,12.7.52,19.06C11.55,253.59,11.82,258.41,11.8,262.7Z"/><path class="cls-5" d="M229,67.57a55.3,55.3,0,0,1-2.66,14c-1.17,3.87-2.19,7.77-3.52,11.59a3.37,3.37,0,0,0-.21,1.13c-.07,4.1-.1,8.19-.27,12.28a60.16,60.16,0,0,1-1.46,11,10.84,10.84,0,0,1-1.47,3.34,59.79,59.79,0,0,1-9.4,11.72,55.8,55.8,0,0,1-13.87,9.86,21.88,21.88,0,0,1-8.39,1.71,67.55,67.55,0,0,1-18-1.22c-.63-.13-1.21.2-1.79.2-4.65,0-9.29.24-13.95-.16-3.25-.27-6.55,0-9.82-.13-4.64-.22-9.1.82-13.6,1.65a50.63,50.63,0,0,1-5.07.69c-1.15.09-2.1.81-3.16.94-4.77.54-9.4,2.26-14.16,2.28a18.49,18.49,0,0,1-12.54-4.39c-4.3-3.73-6.14-8.57-6.85-13.95-.33-2.47.55-4.92,1.09-7.33.49-2.15.6-4.38,1.19-6.49,1.33-4.73,1.62-9.66,2.76-14.41a11.67,11.67,0,0,0-.11-5.66c-1.24-5.14-3.47-9.89-5.29-14.81a24.4,24.4,0,0,1-.53-16.23,27.23,27.23,0,0,1,5.26-9.61c2.63-3.09,6.08-4.42,9.6-5.43,4.19-1.19,7.8-3.34,11.48-5.48,4.44-2.57,8.64-5.58,13.59-7.21a15.42,15.42,0,0,1,4.39-.74c5.41-.18,10.74-1.05,16.09-1.76a50.93,50.93,0,0,1,8.83-.75,41.35,41.35,0,0,0,7.7-.9,26.74,26.74,0,0,1,5.37-.34,32.22,32.22,0,0,0,5.8-.17,21,21,0,0,1,8.82.8c6.77,2.09,12.68,5.95,18.9,9.16A36.06,36.06,0,0,0,213.09,46c4.69,1,7.95,4,10.78,7.49A22.64,22.64,0,0,1,229,67.57Zm-40.07,73.82c1.75-.84,3.84-.28,5.86-.67,2.92-.57,5.13-2.57,7.81-3.57,1.24-.46,1.84-1.55,2.68-2.4,2.49-2.52,5.61-4.56,7.64-7.31,2.24-3,4.56-6.23,5.25-10.36a51.77,51.77,0,0,0,.18-14.81,21.45,21.45,0,0,1,.11-7.87,88.39,88.39,0,0,1,3.23-9.58c1.64-4.27,3.7-8.38,4.47-13,.45-2.67,1.05-5.47.59-8a18.29,18.29,0,0,0-3.85-8.71c-1.93-2.32-4-4.45-6.94-5.41-2-.65-4.07-.85-6-1.41a55.34,55.34,0,0,1-12.84-5.92,69.84,69.84,0,0,0-9.52-4.66c-5.06-2.06-10.45-2-15.82-1.24-.48.07-1.05.31-1.45.16-2-.74-3.91-.13-5.74.15-6,.91-12.06,1.22-18.08,1.79-5,.48-9.95,1.71-15,1.73-4.3,0-7.89,2.32-11.51,4.33-4.44,2.46-8.61,5.45-13.33,7.38-2,.81-4.1,1.31-6.14,2-7.07,2.41-10.67,7.58-11.37,14.8-.56,5.8,1.42,11.05,4.55,15.79,2.68,4.06,4,8.58,5.34,13.14a3,3,0,0,1,0,1.64c-.63,2.12-1,4.29-1.48,6.44-1.21,5.61-3.27,11-4.19,16.68-.49,3.07-1.68,6.06-.9,9.29.63,2.66,1.17,5.26,3.47,7.13a18,18,0,0,1,3.11,3.23,4.36,4.36,0,0,0,2.23,1.62c3.36,1.06,6.69,2.13,10.33,1.16s7.61-1.22,11.3-2.42c6.91-2.26,13.86-4.07,21.26-4,6.9.06,13.81.46,20.73.11a43,43,0,0,1,8.78.27c3.15.48,6.38.44,9.43,1.53C184.85,141.09,186.83,140.84,188.94,141.39Z"/><path class="cls-7" d="M11.8,262.7c0-4.29-.25-9.11-.44-13.91-.25-6.36-.85-12.72-.52-19.06.29-5.49.05-11,.31-16.45.3-6.33.48-12.7,1.41-19a27.83,27.83,0,0,1,8.8-16.87,1.43,1.43,0,0,1,2.06-.13c1.67,1.13,3.51,2,5.2,3.14s4.06,1.66,6.21,2c3.77.68,7.62.24,11.43.42,3.26.16,6.2-.92,9.18-1.91a3.21,3.21,0,0,0,1.19-.86c1.86-2,4.28-3.12,6.55-4.48,1.1-.66,1.92-.42,3,.39,2.86,2.21,3.66,5.23,3.93,8.57.13,1.59.67,3.13.66,4.75,0,4.31-.95,8.53-1.47,12.79-.61,5-1.83,9.92-2,15.06C67,226.1,67.4,235,67,243.83s-.06,17.51-.37,26.26c-.16,4.33.1,8.79-1,13a30.32,30.32,0,0,1-7.2,13.83,2.51,2.51,0,0,1-3,.65c-2.74-.84-5.1-2.88-8.16-2.66-2,.15-4,.51-6.07.56a56.8,56.8,0,0,1-7.72-.21,10.1,10.1,0,0,0-6.92,1.56,16.1,16.1,0,0,1-3.93,1.75,1,1,0,0,1-1.19-.27c-2.33-2.35-4.53-4.79-5.68-8a24.59,24.59,0,0,0-1.66-3.79,10.5,10.5,0,0,1-1.27-4.77C12.64,275.56,11.62,269.42,11.8,262.7Zm1.84-4.24c.27,3.41.61,6.81.79,10.22.23,4.41.68,8.81.71,13.23a11.06,11.06,0,0,0,.54,3.58,35.1,35.1,0,0,0,3.54,6.93c1.05,1.67,1.61,1.66,3.39.85s3.3-2.13,5.33-2.12c1.63,0,3.26.2,4.89.27,3,.13,6.09.66,9,.25A65.26,65.26,0,0,1,55,290.81a1.37,1.37,0,0,1,1.14.8c1.3,2.09,2.48,2.05,3.71-.07.22-.38.49-.74.7-1.12,1.68-3.14,3.2-6.29,2.86-10-.49-5.4,1.14-10.77.31-16.19a2,2,0,0,1,0-.49,108.78,108.78,0,0,0,.92-13.36c.38-11.19-.07-22.39.28-33.59.19-6.45,1.43-12.69,2.33-19,.72-5.1,1.45-10.16-1.18-15-.93-1.71-1.71-2.11-3.31-1.11a18.56,18.56,0,0,1-2.68,1.65c-2.37,1-4,3.33-6.83,3.52a26.16,26.16,0,0,0-3.29.25,42.36,42.36,0,0,1-14,.14c-3.46-.53-7-.36-10.41-1.49-1.47-.48-2.52-.7-3.2-2.19-.57-1.27-1.62-1.28-2.71-.34a7.71,7.71,0,0,0-1.5,2.18c-2.13,3.55-3.9,7.19-3.39,11.55.59,5-1.14,9.87-.77,14.91.25,3.47-.86,7-.8,10.52.1,5.91-.65,11.79-.19,17.73C13.47,246.17,13.59,252.32,13.64,258.46Z"/><path class="cls-6" d="M188.94,141.39c-2.11-.55-4.09-.3-5.94-1-3.05-1.09-6.28-1.05-9.43-1.53a43,43,0,0,0-8.78-.27c-6.92.35-13.83,0-20.73-.11-7.4-.07-14.35,1.74-21.26,4-3.69,1.2-7.58,1.43-11.3,2.42s-7-.1-10.33-1.16a4.36,4.36,0,0,1-2.23-1.62,18,18,0,0,0-3.11-3.23c-2.3-1.87-2.84-4.47-3.47-7.13-.78-3.23.41-6.22.9-9.29.92-5.68,3-11.07,4.19-16.68.46-2.15.85-4.32,1.48-6.44a3,3,0,0,0,0-1.64c-1.32-4.56-2.66-9.08-5.34-13.14-3.13-4.74-5.11-10-4.55-15.79.7-7.22,4.3-12.39,11.37-14.8,2-.7,4.15-1.2,6.14-2,4.72-1.93,8.89-4.92,13.33-7.38,3.62-2,7.21-4.31,11.51-4.33,5.09,0,10-1.25,15-1.73,6-.57,12.08-.88,18.08-1.79,1.83-.28,3.79-.89,5.74-.15.4.15,1-.09,1.45-.16,5.37-.79,10.76-.82,15.82,1.24a69.84,69.84,0,0,1,9.52,4.66,55.34,55.34,0,0,0,12.84,5.92c2,.56,4.08.76,6,1.41,2.94,1,5,3.09,6.94,5.41a18.29,18.29,0,0,1,3.85,8.71c.46,2.56-.14,5.36-.59,8-.77,4.59-2.83,8.7-4.47,13a88.39,88.39,0,0,0-3.23,9.58,21.45,21.45,0,0,0-.11,7.87,51.77,51.77,0,0,1-.18,14.81c-.69,4.13-3,7.32-5.25,10.36-2,2.75-5.15,4.79-7.64,7.31-.84.85-1.44,1.94-2.68,2.4-2.68,1-4.89,3-7.81,3.57C192.78,141.11,190.69,140.55,188.94,141.39Zm5.05-4.47c1.57-.18,3.18.33,4.73-.52,4.95-2.73,9.4-6,12.67-10.71,1.86-2.71,3.39-5.35,2.94-8.85-.38-3,.13-5.92-.21-9a47.28,47.28,0,0,1,2.7-21.36,76,76,0,0,1,4-9.37A36,36,0,0,0,224,66.05a9.67,9.67,0,0,0-.5-5.92c-1.95-4.22-4.73-7.4-9.58-8.35a32.15,32.15,0,0,1-4.23-.64,58,58,0,0,1-8.15-3.31c-3.22-1.71-6.54-3.23-9.84-4.78a29,29,0,0,0-8.32-2.65c-2.2-.3-4.51-.08-6.72-.18-7-.34-13.93,1.42-20.94,1.32-3.13,0-6.19.94-9.33,1.21-4.33.38-8.64,1-13,1.28a32.33,32.33,0,0,0-5.69.94c-4.33,1.09-8.06,3.56-12,5.5-3.12,1.53-6,3.57-9.33,4.67a66.94,66.94,0,0,0-9.79,3.55,5.52,5.52,0,0,0-2,1.67,14.17,14.17,0,0,0-2,13.92C94.09,78.52,96.92,82.06,99,86c.32.63,1.1.77,1.45,1.52,3.09,6.67,3.16,13.57,1.55,20.56a24.84,24.84,0,0,1-2.17,6.82c-1.23,2.2-1.68,4.88-2.27,7.4-.74,3.2-2.35,6.4-.42,9.75,1.08,1.89,1,4.35,3,5.79,2.52,1.83,5.52,2.49,8.35,3.57a.79.79,0,0,0,.48,0c5.32-1.46,11-1.75,15.76-5a3.17,3.17,0,0,1,1-.26c1.93-.46,3.93-.46,5.89-.75a61.83,61.83,0,0,1,11.16-1.12c4.54.16,9.07.22,13.61.27,3.51.05,7.06.58,10.51.19,4.63-.52,9.17.21,13.75.24,1.86,0,4-.18,5.62,1.46.12.12.43.11.65.09C189.26,136.38,191.6,137.2,194,136.92Z"/><path class="cls-8" d="M13.64,258.46c-.05-6.14-.17-12.29-.64-18.4-.46-5.94.29-11.82.19-17.73-.06-3.5,1.05-7.05.8-10.52-.37-5,1.36-9.92.77-14.91-.51-4.36,1.26-8,3.39-11.55a7.71,7.71,0,0,1,1.5-2.18c1.09-.94,2.14-.93,2.71.34.68,1.49,1.73,1.71,3.2,2.19,3.43,1.13,7,1,10.41,1.49a42.36,42.36,0,0,0,14-.14,26.16,26.16,0,0,1,3.29-.25c2.82-.19,4.46-2.53,6.83-3.52a18.56,18.56,0,0,0,2.68-1.65c1.6-1,2.38-.6,3.31,1.11,2.63,4.85,1.9,9.91,1.18,15-.9,6.31-2.14,12.55-2.33,19-.35,11.2.1,22.4-.28,33.59a108.78,108.78,0,0,1-.92,13.36,2,2,0,0,0,0,.49c.83,5.42-.8,10.79-.31,16.19.34,3.75-1.18,6.9-2.86,10-.21.38-.48.74-.7,1.12-1.23,2.12-2.41,2.16-3.71.07a1.37,1.37,0,0,0-1.14-.8,65.26,65.26,0,0,0-13.16.86c-2.94.41-6-.12-9-.25-1.63-.07-3.26-.26-4.89-.27-2,0-3.6,1.33-5.33,2.12s-2.34.82-3.39-.85a35.1,35.1,0,0,1-3.54-6.93,11.06,11.06,0,0,1-.54-3.58c0-4.42-.48-8.82-.71-13.23C14.25,265.27,13.91,261.87,13.64,258.46Zm47.77-20.87c.13-9.85.15-19.7-1-29.5-.45-3.59-.88-7.19-3.42-10.3s-5.49-3.79-9.07-3.68c-4.21.12-8.44.49-12.61-.17s-9.93,1.37-12.08,4.82a35,35,0,0,0-4.94,12.17,140.13,140.13,0,0,0-2.11,21.7c-.19,6.14.45,12.26.56,18.39.12,6.4,1.42,12.59,2.52,18.82a23.08,23.08,0,0,0,5.08,11.33A11.44,11.44,0,0,0,31.35,285a40,40,0,0,0,11.3.42c.76-.08,1.51-.26,2.29-.27,4.1-.05,7.18-2.36,9.59-5.19a22.07,22.07,0,0,0,3.85-7.65,69.25,69.25,0,0,0,1.78-9.4,74.42,74.42,0,0,0,1.26-14C61.34,245.14,61.41,241.37,61.41,237.59Z"/><path class="cls-7" d="M194,136.92c-2.39.28-4.73-.54-7.11-.34-.22,0-.53,0-.65-.09-1.57-1.64-3.76-1.45-5.62-1.46-4.58,0-9.12-.76-13.75-.24-3.45.39-7-.14-10.51-.19-4.54,0-9.07-.11-13.61-.27a61.83,61.83,0,0,0-11.16,1.12c-2,.29-4,.29-5.89.75a3.17,3.17,0,0,0-1,.26c-4.76,3.22-10.44,3.51-15.76,5a.79.79,0,0,1-.48,0c-2.83-1.08-5.83-1.74-8.35-3.57-2-1.44-1.94-3.9-3-5.79-1.93-3.35-.32-6.55.42-9.75.59-2.52,1-5.2,2.27-7.4a24.84,24.84,0,0,0,2.17-6.82c1.61-7,1.54-13.89-1.55-20.56-.35-.75-1.13-.89-1.45-1.52-2.07-4-4.9-7.51-6.46-11.75a14.17,14.17,0,0,1,2-13.92,5.52,5.52,0,0,1,2-1.67,66.94,66.94,0,0,1,9.79-3.55c3.33-1.1,6.21-3.14,9.33-4.67,4-1.94,7.68-4.41,12-5.5a32.33,32.33,0,0,1,5.69-.94c4.34-.29,8.65-.9,13-1.28,3.14-.27,6.2-1.26,9.33-1.21,7,.1,13.89-1.66,20.94-1.32,2.21.1,4.52-.12,6.72.18a29,29,0,0,1,8.32,2.65c3.3,1.55,6.62,3.07,9.84,4.78a58,58,0,0,0,8.15,3.31,32.15,32.15,0,0,0,4.23.64c4.85.95,7.63,4.13,9.58,8.35a9.67,9.67,0,0,1,.5,5.92,36,36,0,0,1-3.22,11.08,76,76,0,0,0-4,9.37,47.28,47.28,0,0,0-2.7,21.36c.34,3.06-.17,6,.21,9,.45,3.5-1.08,6.14-2.94,8.85-3.27,4.74-7.72,8-12.67,10.71C197.17,137.25,195.56,136.74,194,136.92ZM171.13,43.34a21,21,0,0,0-7.09.47c-4.31,1-8.69.59-13,1.18-2.78.38-5.58.66-8.36,1a60.51,60.51,0,0,1-7.53.94A26.47,26.47,0,0,0,121.39,51c-1.59,1-3,2.33-5.07,2.1-.36,0-.77.39-1.16.6-2.89,1.5-5.62,3.3-8.75,4.36-2.44.83-5.16.82-7.33,2.43-1.47,1.09-3.61,1.37-4.3,3.43a13,13,0,0,0,2.37,12.92,49.94,49.94,0,0,1,7.11,11.83,20.75,20.75,0,0,1,1.77,11.6c-.81,5.07.62,10.54-2.65,15.19a2.35,2.35,0,0,0-.28.78c-.95,3.75-1.88,7.5-2.86,11.23a4.28,4.28,0,0,0,0,2,9.21,9.21,0,0,0,3.56,5.91c2,1.53,3.89,2.63,6.44,2s4.88-1,7.22-1.81,5.37-.46,7.28-2.73a.83.83,0,0,1,.62-.19,17,17,0,0,0,4.61-.41c2.63-.39,5.29-.13,7.92-.52a27,27,0,0,1,6.78-.4,158.21,158.21,0,0,0,18.47.54,91.69,91.69,0,0,0,9.37-.15,83.22,83.22,0,0,1,9.48-.07c1.75,0,3.57-.32,5,1.11a.85.85,0,0,0,.77.17c2.14-.73,4.17.25,6.18.54a11.85,11.85,0,0,0,8.83-1.81,19.18,19.18,0,0,0,5.58-5.37c1.12-1.76,2.63-3.29,2.66-5.74,0-3.16-1.28-6.31-.09-9.47a.64.64,0,0,0,0-.49c-1.11-2.05-.47-4.17-.33-6.3a78.39,78.39,0,0,1,2.58-15.62,44.43,44.43,0,0,1,4.32-11.5,38.59,38.59,0,0,0,4.08-11.86c1.15-5.66-1.44-8.94-6.4-10.33-2.85-.8-5.94-.8-8.64-2.06-4.84-2.27-9.95-4-14.67-6.43A31.28,31.28,0,0,0,176.58,43C174.77,43.05,173,43.52,171.13,43.34Z"/><path class="cls-9" d="M61.41,237.59c0,3.78-.07,7.55,0,11.32a74.42,74.42,0,0,1-1.26,14,69.25,69.25,0,0,1-1.78,9.4,22.07,22.07,0,0,1-3.85,7.65c-2.41,2.83-5.49,5.14-9.59,5.19-.78,0-1.53.19-2.29.27a40,40,0,0,1-11.3-.42,11.44,11.44,0,0,1-7.06-3.81,23.08,23.08,0,0,1-5.08-11.33c-1.1-6.23-2.4-12.42-2.52-18.82-.11-6.13-.75-12.25-.56-18.39a140.13,140.13,0,0,1,2.11-21.7,35,35,0,0,1,4.94-12.17c2.15-3.45,7.82-5.49,12.08-4.82s8.4.29,12.61.17c3.58-.11,6.58.63,9.07,3.68s3,6.71,3.42,10.3C61.56,217.89,61.54,227.74,61.41,237.59Zm-3.67.14C57.7,232,58,225,57.38,218c-.25-3-.39-6.11-1.67-8.89-1-2.1-1.61-4.49-3.74-5.92a9.32,9.32,0,0,0-5.2-1.38c-4.7-.09-9.39.27-14.09-.42A6.71,6.71,0,0,0,28,202.74c-4,3.09-5.76,7.67-6.82,12.39-1.45,6.44-1.13,13.07-1.37,19.62-.1,2.7.07,5.41.22,8.12.27,5.13.19,10.28.79,15.39.38,3.26.63,6.61,2,9.66.89,2,1.76,3.93,2.85,5.81a9,9,0,0,0,8,4.53c3.67,0,7.34.42,11,0a11.23,11.23,0,0,0,6.77-3.42c2.53-2.52,3.61-5.94,4.54-9.27a54.33,54.33,0,0,0,1.7-13.74C57.81,247.52,57.74,243.25,57.74,237.73Z"/><path class="cls-8" d="M171.13,43.34c1.84.18,3.64-.29,5.45-.32a31.28,31.28,0,0,1,15.28,3.42c4.72,2.44,9.83,4.16,14.67,6.43,2.7,1.26,5.79,1.26,8.64,2.06,5,1.39,7.55,4.67,6.4,10.33a38.59,38.59,0,0,1-4.08,11.86,44.43,44.43,0,0,0-4.32,11.5,78.39,78.39,0,0,0-2.58,15.62c-.14,2.13-.78,4.25.33,6.3a.64.64,0,0,1,0,.49c-1.19,3.16.12,6.31.09,9.47,0,2.45-1.54,4-2.66,5.74a19.18,19.18,0,0,1-5.58,5.37,11.85,11.85,0,0,1-8.83,1.81c-2-.29-4-1.27-6.18-.54a.85.85,0,0,1-.77-.17c-1.45-1.43-3.27-1.11-5-1.11a83.22,83.22,0,0,0-9.48.07,91.69,91.69,0,0,1-9.37.15,158.21,158.21,0,0,1-18.47-.54,27,27,0,0,0-6.78.4c-2.63.39-5.29.13-7.92.52a17,17,0,0,1-4.61.41.83.83,0,0,0-.62.19c-1.91,2.27-4.84,1.9-7.28,2.73s-4.81,1.23-7.22,1.81-4.47-.49-6.44-2a9.21,9.21,0,0,1-3.56-5.91,4.28,4.28,0,0,1,0-2c1-3.73,1.91-7.48,2.86-11.23a2.35,2.35,0,0,1,.28-.78c3.27-4.65,1.84-10.12,2.65-15.19a20.75,20.75,0,0,0-1.77-11.6,49.94,49.94,0,0,0-7.11-11.83,13,13,0,0,1-2.37-12.92c.69-2.06,2.83-2.34,4.3-3.43,2.17-1.61,4.89-1.6,7.33-2.43,3.13-1.06,5.86-2.86,8.75-4.36.39-.21.8-.64,1.16-.6,2.1.23,3.48-1.14,5.07-2.1a26.47,26.47,0,0,1,13.76-4.05,60.51,60.51,0,0,0,7.53-.94c2.78-.35,5.58-.63,8.36-1,4.31-.59,8.69-.18,13-1.18A21,21,0,0,1,171.13,43.34ZM111.66,99.27c.29,3.87.3,8.33,1,12.78.5,3.28,1.17,6.38,3.3,9,.22.27.42.63.78.45,1.32-.64,1.61.36,2.05,1.2.8,1.53,1.86,2.55,3.81,2.25a4.87,4.87,0,0,1,2.72.17c2.46,1.24,5.09,1,7.64,1.07,4.78.2,9.57.06,14.36.06,2.88,0,5.73.44,8.62.36,3.92-.12,7.85-.11,11.76,0a21.1,21.1,0,0,0,4.77.11c4-.77,8.19-.11,12.05-1.8a1.78,1.78,0,0,1,.83,0,8.48,8.48,0,0,0,5.32-1.55c2.14-1.26,4.1-2.84,6.57-3.49.78-.21,1.22-.92,1.7-1.53,3.43-4.32,5-9.42,6.05-14.72,1.12-5.66,2.29-11.31,3.12-17.05a79.65,79.65,0,0,0,1.13-15.15c-.11-2.38-.45-5-3.51-5.87a1.06,1.06,0,0,1-.7-1,3.86,3.86,0,0,0-1.5-2.5,30.8,30.8,0,0,0-3.59-3.19c-2.22-1.47-3.93-3.52-6.24-4.9a46.21,46.21,0,0,0-7.61-3.65c-2.2-.81-4.56-1.59-6.95-1.23-2,.29-4,.15-6,.29-1,.07-1.9-.27-2.94-.14-1.8.24-3.58.65-5.39.78-3.66.25-7.32.54-11,.64-7.18.2-14.21,1.76-21.38,2.15a16.24,16.24,0,0,0-5.63,1.7c-2.57,1.19-4.57,3.05-6.77,4.69a22.3,22.3,0,0,0-6.4,6.61c-1,1.83-1.51,4.24-4,4.9-.22,0-.42.53-.46.84-.45,3.07-.9,6.18-.2,9.23C110.33,86.66,111.91,92.53,111.66,99.27Z"/><path class="cls-10" d="M57.74,237.73c0,5.52.07,9.79,0,14.06A54.33,54.33,0,0,1,56,265.53c-.93,3.33-2,6.75-4.54,9.27a11.23,11.23,0,0,1-6.77,3.42c-3.7.46-7.37,0-11,0a9,9,0,0,1-8-4.53c-1.09-1.88-2-3.85-2.85-5.81-1.39-3.05-1.64-6.4-2-9.66-.6-5.11-.52-10.26-.79-15.39-.15-2.71-.32-5.42-.22-8.12.24-6.55-.08-13.18,1.37-19.62,1.06-4.72,2.8-9.3,6.82-12.39a6.71,6.71,0,0,1,4.68-1.31c4.7.69,9.39.33,14.09.42a9.32,9.32,0,0,1,5.2,1.38c2.13,1.43,2.77,3.82,3.74,5.92C57,211.93,57.13,215,57.38,218,58,225,57.7,232,57.74,237.73Zm-4.66.67c-.26-6,.37-13.12-.61-20.25-.74-5.38-4-7.69-8.76-7.17-3.64.41-7.17-.19-10.75-.19-1.91,0-5.85,1.81-6.38,3.56a37.59,37.59,0,0,0-2.1,9.84c-.25,9.75,0,19.5.33,29.25a14,14,0,0,0,.22,3.08c.56,2.29,1,4.63,1.46,7,.61,2.84,4.68,6.36,7.38,5.94,3.69-.57,7.35.48,11-.19,2.17-.4,5.79-2.31,6.3-4.48.78-3.26,1.84-6.49,1.86-9.88C53.1,249.75,53.08,244.65,53.08,238.4Z"/><path class="cls-11" d="M111.66,99.27c.25-6.74-1.33-12.61-2.71-18.52-.7-3-.25-6.16.2-9.23,0-.31.24-.79.46-.84,2.54-.66,3-3.07,4-4.9a22.3,22.3,0,0,1,6.4-6.61c2.2-1.64,4.2-3.5,6.77-4.69a16.24,16.24,0,0,1,5.63-1.7c7.17-.39,14.2-2,21.38-2.15,3.67-.1,7.33-.39,11-.64,1.81-.13,3.59-.54,5.39-.78,1-.13,1.95.21,2.94.14,2-.14,4,0,6-.29,2.39-.36,4.75.42,6.95,1.23a46.21,46.21,0,0,1,7.61,3.65c2.31,1.38,4,3.43,6.24,4.9A30.8,30.8,0,0,1,203.5,62a3.86,3.86,0,0,1,1.5,2.5,1.06,1.06,0,0,0,.7,1c3.06.82,3.4,3.49,3.51,5.87a79.65,79.65,0,0,1-1.13,15.15c-.83,5.74-2,11.39-3.12,17.05-1.05,5.3-2.62,10.4-6.05,14.72-.48.61-.92,1.32-1.7,1.53-2.47.65-4.43,2.23-6.57,3.49a8.48,8.48,0,0,1-5.32,1.55,1.78,1.78,0,0,0-.83,0c-3.86,1.69-8.06,1-12.05,1.8a21.1,21.1,0,0,1-4.77-.11c-3.91-.12-7.84-.13-11.76,0-2.89.08-5.74-.37-8.62-.36-4.79,0-9.58.14-14.36-.06-2.55-.11-5.18.17-7.64-1.07a4.87,4.87,0,0,0-2.72-.17c-1.95.3-3-.72-3.81-2.25-.44-.84-.73-1.84-2.05-1.2-.36.18-.56-.18-.78-.45-2.13-2.64-2.8-5.74-3.3-9C112,107.6,112,103.14,111.66,99.27Zm55.67,23.33c6.81.1,13.23-.39,19.41-3,4.1-1.73,7.08-4.69,9.89-7.83,2.55-2.86,3.05-6.81,4.28-10.34,1-2.9,2.37-5.79,2-9a35.38,35.38,0,0,1,0-9.08c.55-3.75-1-7.3-1.08-11a3.39,3.39,0,0,0-.77-2A95,95,0,0,0,194.46,63c-1.17-1.08-2.5-2-3.69-3.07a17.75,17.75,0,0,0-9.08-4.47,58.24,58.24,0,0,0-11.13-.09c-4.68.19-9.35.61-14,.95-3,.22-6,.3-8.9.77A104.1,104.1,0,0,1,136,58.24a17,17,0,0,0-7.79,2.45c-3.54,2-5.75,5.44-8.23,8.52-2,2.44-2.54,5.61-3.65,8.49a12.22,12.22,0,0,0-.64,3.9c-.23,5.13,1.25,10.19.41,15.37-.51,3.16,1.07,6.15,1.49,9.26a20.4,20.4,0,0,0,1.37,5.44c1.41,3.21,3.15,5.73,6.87,7.08,4.54,1.65,9.06,3.24,13.86,3.45,6.2.28,12.43-.06,18.64.12C161.4,122.41,164.49,122.63,167.33,122.6Z"/><path class="cls-12" d="M53.08,238.4c0,6.25,0,11.35,0,16.46,0,3.39-1.08,6.62-1.86,9.88-.51,2.17-4.13,4.08-6.3,4.48-3.69.67-7.35-.38-11,.19-2.7.42-6.77-3.1-7.38-5.94-.5-2.32-.9-4.66-1.46-7a14,14,0,0,1-.22-3.08c-.3-9.75-.58-19.5-.33-29.25a37.59,37.59,0,0,1,2.1-9.84c.53-1.75,4.47-3.55,6.38-3.56,3.58,0,7.11.6,10.75.19,4.72-.52,8,1.79,8.76,7.17C53.45,225.28,52.82,232.42,53.08,238.4Z"/><path class="cls-9" d="M167.33,122.6c-2.84,0-5.93-.19-9-.28-6.21-.18-12.44.16-18.64-.12-4.8-.21-9.32-1.8-13.86-3.45-3.72-1.35-5.46-3.87-6.87-7.08a20.4,20.4,0,0,1-1.37-5.44c-.42-3.11-2-6.1-1.49-9.26.84-5.18-.64-10.24-.41-15.37a12.22,12.22,0,0,1,.64-3.9c1.11-2.88,1.69-6,3.65-8.49,2.48-3.08,4.69-6.5,8.23-8.52A17,17,0,0,1,136,58.24a104.1,104.1,0,0,0,11.66-1.14c2.94-.47,5.93-.55,8.9-.77,4.67-.34,9.34-.76,14-.95a58.24,58.24,0,0,1,11.13.09,17.75,17.75,0,0,1,9.08,4.47c1.19,1.07,2.52,2,3.69,3.07a95,95,0,0,1,6.65,7.39,3.39,3.39,0,0,1,.77,2c.06,3.7,1.63,7.25,1.08,11a35.38,35.38,0,0,0,0,9.08c.35,3.18-1,6.07-2,9-1.23,3.53-1.73,7.48-4.28,10.34-2.81,3.14-5.79,6.1-9.89,7.83C180.56,122.21,174.14,122.7,167.33,122.6Zm31.85-33.38a20.93,20.93,0,0,0-1.88-11.84c-1.49-3-2.66-6.41-4.84-8.86-3.89-4.35-8.79-7.38-15-7.2-3.82.11-7.64-.22-11.45.31a36,36,0,0,1-7.73.57,21.87,21.87,0,0,0-5.39.28c-5.13.83-10.31,1.08-15.46,1.45-2.42.17-4.45,1.25-6.52,2.17-1.15.5-2.65.91-3.36,2-2.78,4.33-6.43,8.23-6.8,13.79-.15,2.36-1.2,4.75-.91,7,.49,3.71-.31,7.36.18,11,.69,5.22,1.86,10.15,6.59,13.29,1.18.78,1.65,2.22,3,2.8a32.34,32.34,0,0,0,6.86,1.83c4.31.8,8.71.67,13.07.7,7.2,0,14.41-.06,21.6.36a25.93,25.93,0,0,0,10.38-1.34c4.49-1.67,9.23-3.61,11.9-8.24,1.15-2,3-3.61,3.64-5.89C198.32,98.75,200.05,94.07,199.18,89.22Z"/><path class="cls-13" d="M199.18,89.22c.87,4.85-.86,9.53-2.16,14.26-.63,2.28-2.49,3.89-3.64,5.89-2.67,4.63-7.41,6.57-11.9,8.24A25.93,25.93,0,0,1,171.1,119c-7.19-.42-14.4-.31-21.6-.36-4.36,0-8.76.1-13.07-.7a32.34,32.34,0,0,1-6.86-1.83c-1.34-.58-1.81-2-3-2.8-4.73-3.14-5.9-8.07-6.59-13.29-.49-3.69.31-7.34-.18-11-.29-2.26.76-4.65.91-7,.37-5.56,4-9.46,6.8-13.79.71-1.11,2.21-1.52,3.36-2,2.07-.92,4.1-2,6.52-2.17,5.15-.37,10.33-.62,15.46-1.45a21.87,21.87,0,0,1,5.39-.28,36,36,0,0,0,7.73-.57c3.81-.53,7.63-.2,11.45-.31,6.24-.18,11.14,2.85,15,7.2,2.18,2.45,3.35,5.82,4.84,8.86A20.93,20.93,0,0,1,199.18,89.22Zm-28.35,26.4c2.07.35,4.62-.3,7.16-.77,2.31-.43,4.78-.66,6.71-2.2,2.11-1.69,4.07-3.56,6.09-5.36s2.51-4.05,3.4-6.32a25.71,25.71,0,0,0,1.43-10.77c-.15-3.45-1.34-6.67-2.21-10a17.53,17.53,0,0,0-5.34-8.4c-3.44-3-7.59-5.18-12.63-4.92q-7.2.39-14.4.67c-4.75.18-9.53,0-14.22.78s-9.43.17-13.77,2.79c-2.43,1.46-4.51,2.88-5.38,5.67-.21.68-.49,1.35-.75,2-1,2.41-2.3,4.75-2.78,7.26a53.28,53.28,0,0,0-.48,12.5,17.88,17.88,0,0,0,4.4,10.65,12.64,12.64,0,0,0,5.3,3.86c3.46,1.23,7,2.22,10.86,1.86,2.3-.21,4.7.4,6.93.14,3.1-.36,6.14.12,9.21,0C163.62,114.94,167,115.61,170.83,115.62Z"/><path class="cls-10" d="M170.83,115.62c-3.88,0-7.21-.68-10.47-.53-3.07.15-6.11-.33-9.21,0-2.23.26-4.63-.35-6.93-.14-3.82.36-7.4-.63-10.86-1.86a12.64,12.64,0,0,1-5.3-3.86,17.88,17.88,0,0,1-4.4-10.65,53.28,53.28,0,0,1,.48-12.5c.48-2.51,1.83-4.85,2.78-7.26.26-.67.54-1.34.75-2,.87-2.79,3-4.21,5.38-5.67,4.34-2.62,9.16-2,13.77-2.79s9.47-.6,14.22-.78,9.6-.41,14.4-.67c5-.26,9.19,1.89,12.63,4.92a17.53,17.53,0,0,1,5.34,8.4c.87,3.29,2.06,6.51,2.21,10A25.71,25.71,0,0,1,194.19,101c-.89,2.27-1.5,4.62-3.4,6.32s-4,3.67-6.09,5.36c-1.93,1.54-4.4,1.77-6.71,2.2C175.45,115.32,172.9,116,170.83,115.62Zm-9.48-42.68c-6.07.33-12.51.68-19,1-2.83.17-5.57.6-7.7,2.76a4.17,4.17,0,0,1-1,.56,7.31,7.31,0,0,0-3.82,4.35c-.83,2.61-2.13,5-2.31,7.89-.23,4-1.33,7.89.12,11.89.79,2.16,1.57,4.46,3.17,5.94a17.57,17.57,0,0,0,11.67,4.47c5.95.13,11.92.55,17.89.1a12.41,12.41,0,0,1,1.49,0c5.64.24,11.3,1.57,16.88-.55,1.27-.48,2.85-.29,3.94-1.14,3.15-2.44,6.62-4.56,8-8.73,1-2.86,1.92-5.64,1.57-8.7a43,43,0,0,0-1.92-9.2,13.94,13.94,0,0,0-5.16-7.3c-1.5-1-3.08-2-4.59-3a3.75,3.75,0,0,0-1.84-.71c-2.81-.16-5.63-.09-8.45-.15S164.62,73.13,161.35,72.94Z"/><path class="cls-14" d="M161.35,72.94c3.27.19,6.12-.46,9-.4s5.64,0,8.45.15a3.75,3.75,0,0,1,1.84.71c1.51,1,3.09,1.94,4.59,3a13.94,13.94,0,0,1,5.16,7.3,43,43,0,0,1,1.92,9.2c.35,3.06-.61,5.84-1.57,8.7-1.39,4.17-4.86,6.29-8,8.73-1.09.85-2.67.66-3.94,1.14-5.58,2.12-11.24.79-16.88.55a12.41,12.41,0,0,0-1.49,0c-6,.45-11.94,0-17.89-.1a17.57,17.57,0,0,1-11.67-4.47c-1.6-1.48-2.38-3.78-3.17-5.94-1.45-4-.35-7.91-.12-11.89.18-2.9,1.48-5.28,2.31-7.89a7.31,7.31,0,0,1,3.82-4.35,4.17,4.17,0,0,0,1-.56c2.13-2.16,4.87-2.59,7.7-2.76C148.84,73.62,155.28,73.27,161.35,72.94Zm-5.51,7.72c-5.55-.13-9.9.82-14.3,1-2.24.07-7.35,3.53-8.13,5.62a6.4,6.4,0,0,0-.38,1.61,26,26,0,0,1-1.3,6.3,4,4,0,0,0,.05,2.89c.62,1.65,1.36,3.26,2.06,4.89a3.2,3.2,0,0,0,1.54,1.68c3,1.47,6.06,2.81,9.61,2.71,5.71-.17,11.43,0,17.14,0a10.21,10.21,0,0,1,1.66.1c3.56.54,7.18-.11,10.74.54a2,2,0,0,0,.81-.17c2-.61,4-1.32,6-1.84a5.09,5.09,0,0,0,3.48-3c.75-1.6,1.5-3.19,2.22-4.8a5.63,5.63,0,0,0,.37-2.87c-.14-1.66-.57-3.26-.86-4.88-.25-1.42-.3-3.1-1.57-4.08-1.11-.85-2-1.9-3.06-2.8-1.21-1-2.4-2.24-4.05-2.44-2.19-.26-4.4-.3-6.61-.36C165.76,80.47,160.24,81,155.84,80.66Z"/><path class="cls-12" d="M155.84,80.66c4.4.34,9.92-.19,15.44,0,2.21.06,4.42.1,6.61.36,1.65.2,2.84,1.41,4.05,2.44,1.06.9,1.95,2,3.06,2.8,1.27,1,1.32,2.66,1.57,4.08.29,1.62.72,3.22.86,4.88a5.63,5.63,0,0,1-.37,2.87c-.72,1.61-1.47,3.2-2.22,4.8a5.09,5.09,0,0,1-3.48,3c-2,.52-4,1.23-6,1.84a2,2,0,0,1-.81.17c-3.56-.65-7.18,0-10.74-.54a10.21,10.21,0,0,0-1.66-.1c-5.71,0-11.43-.13-17.14,0-3.55.1-6.57-1.24-9.61-2.71a3.2,3.2,0,0,1-1.54-1.68c-.7-1.63-1.44-3.24-2.06-4.89a4,4,0,0,1-.05-2.89,26,26,0,0,0,1.3-6.3,6.4,6.4,0,0,1,.38-1.61c.78-2.09,5.89-5.55,8.13-5.62C145.94,81.48,150.29,80.53,155.84,80.66Z"/><path class="cls-2" d="M32.64,306.88c.29,3.11,4.18,2.42,6.31,1.88l-1.9-1.45,0,.41a1.52,1.52,0,0,0,1.9,1.45,4.42,4.42,0,0,1,1.24-.21l-1.45-1.9-.07.12c-.76,1.24.49,2.37,1.69,2.2a13.53,13.53,0,0,0,2-.42,1.5,1.5,0,0,0-.79-2.89,53.36,53.36,0,0,1-6.14,1.1l.76,2.79a19.07,19.07,0,0,1,2.37-1.35A6.17,6.17,0,0,1,40,308a1.67,1.67,0,0,1,1.13.15,10.51,10.51,0,0,0,5.5.48l-1.7-2.2c-.13.23-.56.49-.42.51l.9.69c0,.29.06.21.1-.24a6.75,6.75,0,0,1,.25-.76c.49-1.35-1.13-2.2-2.2-1.7-1.48.7-4.08,2.44-2.4,4.28,1.4,1.54,4.1,1.25,5.74.38a1.51,1.51,0,0,0-1.16-2.74c-1.91.6-4,1.3-6,1a5.68,5.68,0,0,1-2.66-1.1c-.32-.23-.62-.5-.92-.76s-.84-.86-.76-.65l-2.5,1.46,0-.13a1.51,1.51,0,0,0,1.89,1.44,7.25,7.25,0,0,0,2.18-.93H35.39c0-.75-.15-1-.49-.76-.17.09-.33.17-.5.24a7.71,7.71,0,0,1-.92.32,7.08,7.08,0,0,0-.92.19c-.28.17,0,.43-.37.67l-2.06-2.05-.71,1a1.52,1.52,0,0,0,1.7,2.2,13.68,13.68,0,0,0,2-.66l-1.15-2.75A14.36,14.36,0,0,1,27.69,307a3.44,3.44,0,0,0-.86.09c-.51.24.27,1,.58,1s.53-.29.89,0l.66-2.5a11.67,11.67,0,0,1-3.82.07c-.93-.18-1.11-1-1.65-1.66s-1.69-1.17-2.24-2-.88-1.78-1.43-2.62a50.78,50.78,0,0,1-3.67-5.67c-1.08-2.21-1.93-4.53-2.85-6.8-.72-1.76-3.62-1-2.89.8,1.05,2.58,2,5.22,3.25,7.72s3.17,4.47,4.43,6.91A6.66,6.66,0,0,0,20,305a4.63,4.63,0,0,1,1.27,1.05,10.89,10.89,0,0,0,.95,1.38c1.77,1.9,5.24,1.42,7.53,1.06a1.51,1.51,0,0,0,.66-2.51,3.74,3.74,0,0,0-3.77-.85,3,3,0,0,0-2.23,3.22c.68,3.56,7.2.79,9-.07,1.52-.72.42-3.41-1.15-2.75a15.77,15.77,0,0,1-2,.67l1.69,2.2.71-1c.85-1.24-.82-2.84-2-2.05a2.54,2.54,0,0,0-.93,3.31,3.28,3.28,0,0,0,3.79,1.5,7.1,7.1,0,0,0,4-1.91,2.33,2.33,0,0,0-.6-3.56,1.49,1.49,0,0,0-1.51,0,4.86,4.86,0,0,1-1.46.63l1.9,1.45a3,3,0,0,0-.85-2c-1-1.05-3,0-2.51,1.46.81,2.12,3.66,3.94,5.79,4.48,2.77.69,5.62-.09,8.27-.92L45.38,307a2.25,2.25,0,0,1-1.29.29,1.41,1.41,0,0,1-.57-.11c-.42-.22-.46-.22-.12,0l.15,1.16c-.23.32-.23.36,0,.15a2.86,2.86,0,0,1,.48-.38,7.17,7.17,0,0,1,1.05-.58l-2.2-1.69c-.5,1.37-.87,3.59,1,4A3.53,3.53,0,0,0,47.51,308a1.52,1.52,0,0,0-1.69-2.2,7,7,0,0,1-3.08-.19A6.71,6.71,0,0,0,40,305a13.11,13.11,0,0,0-5.29,2.4c-1.12.74-.85,3,.75,2.8A62,62,0,0,0,42.4,309l-.79-2.89a14.08,14.08,0,0,1-2,.42l1.69,2.2a4.12,4.12,0,0,0,.37-.83,1.51,1.51,0,0,0-1.44-1.9,7.82,7.82,0,0,0-2,.32l1.9,1.44,0-.41a1.53,1.53,0,0,0-1.9-1.45,10.19,10.19,0,0,1-1.8.34c-.3,0-.6,0-.9,0-.45-.13-.39.08.19.64-.18-1.91-3.18-1.93-3,0Z"/><path class="cls-2" d="M44.06,308.27a3.67,3.67,0,0,0,3.38-.12A4.94,4.94,0,0,0,48,308c.53-.36,0-2.18-.71-1.62a2.14,2.14,0,0,0-.78,1.21,1.53,1.53,0,0,0,1,1.85,6.87,6.87,0,0,0,3.22,0c1-.36,1.29-1.18,1.38-2.18l-.44,1.06.16-.15-1.06.44c-.17,0-.57-.4-.2,0a3.17,3.17,0,0,0,.51.37,2.33,2.33,0,0,0,1.6.18,14.16,14.16,0,0,0,2.45-1.44c1.89-.94,3.46-2.85,4.88-4.38a22.63,22.63,0,0,0,3.41-5.77Q65.14,294.2,67,291l-2.8-.76c.17,1.41,1.3,3,2.89,2a2.1,2.1,0,0,0,1-1.77,4.88,4.88,0,0,1,.63-2.44l-2.74-1.16a5.07,5.07,0,0,0-.14,1.45c.13,1.92,3.13,1.93,3,0a1.43,1.43,0,0,1,0-.65,1.51,1.51,0,0,0-2.74-1.16,7.14,7.14,0,0,0-.84,2,6.54,6.54,0,0,0-.16,1l0,.39q-.16,1.14,1-.36l1.06.44.09.3a1.51,1.51,0,0,0-2.79-.76c-1.31,2.24-2.55,4.52-3.7,6.85-.54,1.1-1,2.25-1.64,3.31a14.93,14.93,0,0,1-2.42,2.79,17,17,0,0,1-2.33,2.24c-.47.32-1,.48-1.49.8a3.21,3.21,0,0,0-.69.55c-.11.23.41.23.34.1-.45-1-2.22-.63-2.78-.08-.12.12-.76,1.31-.54,1.35l.63-.85h-.23a7.46,7.46,0,0,0-1.18-.08l1,1.85c-.1.39.15,0,.3-.16a2,2,0,0,0,.47-.8,1.76,1.76,0,0,0-.59-1.86,2.59,2.59,0,0,0-2.07-.51c-.34.05-1.77.77-2,.67-1.7-.9-3.22,1.69-1.51,2.59Z"/></g></g></svg>